<svg width="40" height="40" viewBox="0 0 40 40" fill="none" xmlns="http://www.w3.org/2000/svg">
<path d="M39.4531 20.0781C39.4531 22.7968 39.3984 25.5234 39.4687 28.2421C39.5859 33.0546 36.5625 36.7734 32.7109 38.4296C31.1641 39.0937 29.5391 39.4453 27.8594 39.4453C22.6016 39.4531 17.3359 39.5234 12.0781 39.4218C8.11719 39.3437 4.85937 37.6875 2.52344 34.4218C1.29687 32.7031 0.710938 30.75 0.710938 28.6328C0.710938 23.0312 0.710938 17.4375 0.710938 11.8359C0.710938 7.26558 2.9375 4.07026 6.89062 1.99214C8.60937 1.0937 10.4766 0.710888 12.4219 0.703075C17.5234 0.703075 22.6328 0.671825 27.7344 0.7187C31.6953 0.74995 35 2.26558 37.4375 5.45308C38.7969 7.23433 39.4531 9.2812 39.4531 11.5312C39.4531 14.375 39.4531 17.2265 39.4531 20.0781ZM3.59375 20.0781C3.59375 22.9453 3.59375 25.8046 3.59375 28.6718C3.59375 29.9531 3.89062 31.1562 4.55469 32.2421C6.29687 35.0937 8.92969 36.4843 12.1953 36.539C17.4375 36.6171 22.6875 36.5703 27.9375 36.5546C29.2266 36.5546 30.4766 36.289 31.6406 35.7343C34.8125 34.2187 36.5859 31.8046 36.5703 28.1796C36.5391 22.6328 36.5625 17.0859 36.5625 11.539C36.5625 9.9687 36.1172 8.5312 35.1875 7.26558C33.3906 4.83589 30.9062 3.64058 27.9375 3.60933C22.7031 3.54683 17.4687 3.58589 12.2344 3.5937C11.1172 3.5937 10.0391 3.82026 8.99219 4.21089C6.11719 5.2812 3.44531 7.99214 3.57031 11.9843C3.66406 14.6874 3.59375 17.3828 3.59375 20.0781Z" fill="black"/>
<path d="M20.125 28.3594C15.086 28.3594 11.0234 24.3438 11.0156 19.3438C11.0078 14.4219 15.1016 10.3906 20.1094 10.3906C25.1328 10.3828 29.211 14.4063 29.2188 19.3672C29.2188 24.3203 25.1485 28.3516 20.125 28.3594ZM20.125 25.4688C23.5547 25.4688 26.336 22.7266 26.3281 19.3516C26.3203 16.0078 23.5391 13.2734 20.125 13.2734C16.6953 13.2734 13.8984 16 13.8984 19.3672C13.9063 22.7422 16.6953 25.4766 20.125 25.4688Z" fill="black"/>
<path d="M30.2734 7.65625C31.3281 7.65625 32.1874 8.55469 32.1874 9.65625C32.1796 10.7578 31.3124 11.6484 30.2577 11.6406C29.2187 11.6328 28.3671 10.7422 28.3671 9.66406C28.3593 8.5625 29.2187 7.65625 30.2734 7.65625Z" fill="black"/>
</svg>
