<svg width="189" height="100" viewBox="0 0 189 100" fill="none" xmlns="http://www.w3.org/2000/svg">
<path d="M19.755 81.6492V75.7909H28.276C30.541 75.7909 32.4124 74.3655 32.4124 70.913C32.4124 67.4786 30.541 66.0592 28.276 66.0592H18.1683V81.6492H19.755ZM28.276 67.5869C29.6871 67.5869 30.8499 68.5733 30.8499 70.913C30.8499 73.2948 29.6871 74.2813 28.276 74.2813H19.755V67.5869H28.276ZM53.7724 81.6492V66.0592H52.4279L45.1848 76.7954L37.9659 66.0592H36.579V81.6492H38.1597V69.1447L44.5247 78.5216H45.8691L52.2281 69.1447V81.6492H53.7724ZM66.7386 73.5836C66.7386 80.5125 70.9234 81.956 75.4352 81.956C76.8644 81.956 79.0871 81.7816 81.0735 81.4748L80.9402 79.9651C79.0265 80.3801 76.713 80.4704 75.7622 80.4704C71.7591 80.4704 68.3011 79.3516 68.3011 73.5836C68.3011 67.7854 71.7773 67.2621 75.3928 67.2621C76.7797 67.2621 79.0265 67.3704 80.9402 67.7433L81.0735 66.2336C79.0447 65.9509 76.8887 65.7524 75.2172 65.7524C70.99 65.7524 66.7386 66.6306 66.7386 73.5836ZM90.4302 81.956C94.3243 81.956 97.2555 80.8854 97.2555 75.3098C97.2555 69.8184 94.3485 68.9883 91.0237 68.9883C87.1478 68.9883 84.2166 70.083 84.2166 75.6346C84.2166 81.144 87.1235 81.956 90.4302 81.956ZM90.3817 80.4704C88.0259 80.4704 85.8033 80.0975 85.8033 75.5925C85.8033 71.1536 88.0259 70.498 91.1085 70.498C93.4219 70.498 95.6869 70.8709 95.6869 75.3759C95.6869 79.8148 93.4885 80.4704 90.3817 80.4704ZM111.869 81.6492V69.3191H101.985L101.61 78.0645C101.525 79.9892 100.823 80.2959 99.7869 80.2959C99.6537 80.2959 99.3872 80.2959 99.0784 80.2298L98.9694 81.6733C99.3872 81.6913 99.7869 81.7816 100.114 81.7816C101.767 81.7816 103.045 81.1681 103.178 78.0645L103.505 70.7807H110.306V81.6492H111.869ZM117.925 81.6492V76.206H119.839C120.039 80.711 122.637 81.956 126.18 81.956C130.298 81.956 132.92 80.2298 132.92 75.3098C132.92 70.3657 130.231 68.9883 126.537 68.9883C122.703 68.9883 120.172 70.5221 119.863 74.7384H117.925V69.3191H116.363V81.6492H117.925ZM126.379 80.4704C123.406 80.4704 121.407 79.5922 121.407 75.6827C121.407 71.7852 123.363 70.498 126.555 70.498C129.177 70.498 131.333 71.3521 131.333 75.2857C131.333 79.0028 129.462 80.4704 126.379 80.4704ZM152.645 69.3191V80.1396H146.219V69.3191H144.633V80.1396H138.201V69.3191H136.639V81.6492H154.232V69.3191H152.645ZM160.306 81.6492V76.206H169.269V81.6492H170.832V69.3191H169.269V74.7384H160.306V69.3191H158.743V81.6492H160.306Z" fill="black"/>
<path d="M75.835 18.0441H74.2119V19.656V55.1186V56.7305H75.835H106.673H108.296V55.1186V26.1038V24.4918H106.673H82.3271H80.7041V26.1038V48.6708V50.2828H82.3271H100.181H101.804V48.6708V32.5515V30.9396H100.181H88.8193H87.1963V32.5515V42.2231V43.835H88.8193H93.6885H95.3115V42.2231V37.3873H93.6885H92.0654V38.9992H93.6885V42.2231H88.8193V32.5515H100.181V48.6708H82.3271V26.1038H106.673V55.1186H75.835V19.656H113.165V56.7305H114.788V18.0441H113.165H75.835Z" fill="black"/>
</svg>
